<svg width="77" height="105" viewBox="0 0 77 105" fill="none" xmlns="http://www.w3.org/2000/svg">
<path d="M9.12 99.4192H3.04L1.92 102.803H0L5.04 87.6725H7.14L12.16 102.803H10.24L9.12 99.4192ZM8.6 97.8035L6.08 90.1179L3.56 97.8035H8.6ZM19.6966 90.6201C21.0299 90.6201 22.1099 91.0641 22.9366 91.9519C23.7632 92.8253 24.1766 94.0917 24.1766 95.7511V102.803H22.3766V96.0349C22.3766 94.8414 22.1032 93.9315 21.5566 93.3057C21.0099 92.6652 20.2632 92.3449 19.3166 92.3449C18.3566 92.3449 17.5899 92.6725 17.0166 93.3275C16.4566 93.9825 16.1766 94.9359 16.1766 96.1877V102.803H14.3566V90.8384H16.1766V92.5415C16.5366 91.9301 17.0232 91.4571 17.6366 91.1222C18.2632 90.7874 18.9499 90.6201 19.6966 90.6201ZM26.4695 96.7773C26.4695 95.5546 26.6962 94.4847 27.1495 93.5677C27.6029 92.6361 28.2229 91.9156 29.0095 91.4061C29.8095 90.8966 30.7029 90.6419 31.6895 90.6419C32.5429 90.6419 33.3362 90.8602 34.0695 91.2969C34.8029 91.7191 35.3629 92.2794 35.7495 92.9781V86.6463H37.5895V102.803H35.7495V100.555C35.3895 101.268 34.8562 101.857 34.1495 102.323C33.4429 102.774 32.6162 103 31.6695 103C30.6962 103 29.8095 102.738 29.0095 102.214C28.2229 101.69 27.6029 100.955 27.1495 100.009C26.6962 99.0625 26.4695 97.9855 26.4695 96.7773ZM35.7495 96.7991C35.7495 95.8966 35.5829 95.1106 35.2495 94.441C34.9162 93.7715 34.4629 93.262 33.8895 92.9126C33.3295 92.5488 32.7095 92.3668 32.0295 92.3668C31.3495 92.3668 30.7295 92.5415 30.1695 92.8908C29.6095 93.2401 29.1629 93.7496 28.8295 94.4192C28.4962 95.0887 28.3295 95.8748 28.3295 96.7773C28.3295 97.6943 28.4962 98.4948 28.8295 99.179C29.1629 99.8486 29.6095 100.365 30.1695 100.729C30.7295 101.079 31.3495 101.253 32.0295 101.253C32.7095 101.253 33.3295 101.079 33.8895 100.729C34.4629 100.365 34.9162 99.8486 35.2495 99.179C35.5829 98.4948 35.7495 97.7016 35.7495 96.7991ZM42.4852 92.7816C42.8052 92.0975 43.2585 91.5662 43.8452 91.1877C44.4452 90.8093 45.1718 90.6201 46.0252 90.6201V92.6725H45.5452C43.5052 92.6725 42.4852 93.8807 42.4852 96.2969V102.803H40.6652V90.8384H42.4852V92.7816ZM52.9061 103C51.8794 103 50.9461 102.745 50.1061 102.236C49.2794 101.726 48.6261 101.006 48.1461 100.074C47.6794 99.128 47.4461 98.0363 47.4461 96.7991C47.4461 95.5764 47.6861 94.4992 48.1661 93.5677C48.6594 92.6215 49.3261 91.901 50.1661 91.4061C51.0061 90.8966 51.9461 90.6419 52.9861 90.6419C54.0261 90.6419 54.9661 90.8966 55.8061 91.4061C56.6461 91.901 57.3061 92.6143 57.7861 93.5458C58.2794 94.4774 58.5261 95.5619 58.5261 96.7991C58.5261 98.0363 58.2728 99.128 57.7661 100.074C57.2728 101.006 56.5994 101.726 55.7461 102.236C54.8928 102.745 53.9461 103 52.9061 103ZM52.9061 101.253C53.5594 101.253 54.1728 101.086 54.7461 100.751C55.3194 100.416 55.7794 99.9141 56.1261 99.2445C56.4861 98.575 56.6661 97.7598 56.6661 96.7991C56.6661 95.8384 56.4928 95.0232 56.1461 94.3537C55.7994 93.6841 55.3461 93.1892 54.7861 92.869C54.2261 92.5341 53.6194 92.3668 52.9661 92.3668C52.2994 92.3668 51.6861 92.5341 51.1261 92.869C50.5794 93.1892 50.1394 93.6841 49.8061 94.3537C49.4728 95.0232 49.3061 95.8384 49.3061 96.7991C49.3061 97.7743 49.4661 98.5968 49.7861 99.2664C50.1194 99.9359 50.5594 100.438 51.1061 100.773C51.6528 101.093 52.2528 101.253 52.9061 101.253ZM61.8591 88.8952C61.5124 88.8952 61.2191 88.7642 60.9791 88.5022C60.7391 88.2401 60.6191 87.9199 60.6191 87.5415C60.6191 87.163 60.7391 86.8428 60.9791 86.5808C61.2191 86.3187 61.5124 86.1877 61.8591 86.1877C62.1924 86.1877 62.4724 86.3187 62.6991 86.5808C62.9391 86.8428 63.0591 87.163 63.0591 87.5415C63.0591 87.9199 62.9391 88.2401 62.6991 88.5022C62.4724 88.7642 62.1924 88.8952 61.8591 88.8952ZM62.7391 90.8384V102.803H60.9191V90.8384H62.7391ZM65.1609 96.7773C65.1609 95.5546 65.3876 94.4847 65.8409 93.5677C66.2943 92.6361 66.9143 91.9156 67.7009 91.4061C68.5009 90.8966 69.3943 90.6419 70.3809 90.6419C71.2343 90.6419 72.0276 90.8602 72.7609 91.2969C73.4943 91.7191 74.0543 92.2794 74.4409 92.9781V86.6463H76.2809V102.803H74.4409V100.555C74.0809 101.268 73.5476 101.857 72.8409 102.323C72.1343 102.774 71.3076 103 70.3609 103C69.3876 103 68.5009 102.738 67.7009 102.214C66.9143 101.69 66.2943 100.955 65.8409 100.009C65.3876 99.0625 65.1609 97.9855 65.1609 96.7773ZM74.4409 96.7991C74.4409 95.8966 74.2743 95.1106 73.9409 94.441C73.6076 93.7715 73.1543 93.262 72.5809 92.9126C72.0209 92.5488 71.4009 92.3668 70.7209 92.3668C70.0409 92.3668 69.4209 92.5415 68.8609 92.8908C68.3009 93.2401 67.8543 93.7496 67.5209 94.4192C67.1876 95.0887 67.0209 95.8748 67.0209 96.7773C67.0209 97.6943 67.1876 98.4948 67.5209 99.179C67.8543 99.8486 68.3009 100.365 68.8609 100.729C69.4209 101.079 70.0409 101.253 70.7209 101.253C71.4009 101.253 72.0209 101.079 72.5809 100.729C73.1543 100.365 73.6076 99.8486 73.9409 99.179C74.2743 98.4948 74.4409 97.7016 74.4409 96.7991Z" fill="white"/>
<path d="M21.7383 52.8931H25.7283V57.249C25.7283 58.5693 26.2088 59.8356 27.0639 60.7691C27.9191 61.7027 29.0789 62.2272 30.2883 62.2272C31.4977 62.2272 32.6576 61.7027 33.5127 60.7691C34.3679 59.8356 34.8483 58.5693 34.8483 57.249V52.8931H42.8283V57.249C42.8283 58.5693 43.3088 59.8356 44.1639 60.7691C45.0191 61.7027 46.1789 62.2272 47.3883 62.2272C48.5977 62.2272 49.7576 61.7027 50.6127 60.7691C51.4679 59.8356 51.9483 58.5693 51.9483 57.249V52.8931H55.9383V25.5132H21.7383V52.8931Z" fill="#00FF47"/>
<path d="M56.6421 0.336037C56.2965 0.114738 55.9028 -0.00130291 55.5021 1.10357e-05C55.1023 0.00045875 54.7096 0.115682 54.3634 0.334122C54.0173 0.552563 53.7298 0.866538 53.5299 1.24455L50.1099 7.73484C46.9931 4.75891 42.9931 3.1187 38.8524 3.1187C34.7117 3.1187 30.7117 4.75891 27.5949 7.73484L24.1521 1.24455C23.9522 0.866538 23.6647 0.552563 23.3186 0.334122C22.9724 0.115682 22.5797 0.00045875 22.1799 1.10357e-05C21.7792 -0.00130291 21.3855 0.114738 21.0399 0.336037C20.5163 0.665487 20.1339 1.20842 19.9768 1.8455C19.8197 2.48259 19.9007 3.16171 20.202 3.73364L24.4371 11.736C22.6711 14.7305 21.7348 18.218 21.741 21.7795H55.941C55.9472 18.218 55.011 14.7305 53.2449 11.736L57.48 3.73364C57.7813 3.16171 57.8623 2.48259 57.7052 1.8455C57.5481 1.20842 57.1657 0.665487 56.6421 0.336037ZM32.286 16.8013C31.9478 16.8013 31.6172 16.6918 31.336 16.4867C31.0548 16.2816 30.8356 15.9901 30.7062 15.6489C30.5767 15.3078 30.5429 14.9324 30.6089 14.5703C30.6748 14.2082 30.8377 13.8755 31.0769 13.6145C31.316 13.3534 31.6207 13.1755 31.9524 13.1036C32.2841 13.0316 32.6279 13.0684 32.9404 13.2098C33.2529 13.3511 33.5199 13.5904 33.7078 13.8974C33.8957 14.2044 33.996 14.5653 33.996 14.9345C33.996 15.4296 33.8158 15.9045 33.4952 16.2546C33.1745 16.6046 32.7395 16.8013 32.286 16.8013ZM45.396 16.8013C45.0578 16.8013 44.7272 16.6918 44.446 16.4867C44.1648 16.2816 43.9456 15.9901 43.8162 15.6489C43.6867 15.3078 43.6529 14.9324 43.7189 14.5703C43.7848 14.2082 43.9477 13.8755 44.1869 13.6145C44.426 13.3534 44.7307 13.1755 45.0624 13.1036C45.3941 13.0316 45.7379 13.0684 46.0504 13.2098C46.3629 13.3511 46.6299 13.5904 46.8178 13.8974C47.0057 14.2044 47.106 14.5653 47.106 14.9345C47.106 15.4296 46.9258 15.9045 46.6052 16.2546C46.2845 16.6046 45.8495 16.8013 45.396 16.8013Z" fill="#00FF47"/>
<path d="M63.92 25.5132C63.0129 25.5132 62.143 25.9065 61.5017 26.6067C60.8603 27.307 60.5 28.2566 60.5 29.2468V41.6922C60.5 42.6825 60.8603 43.6321 61.5017 44.3323C62.143 45.0325 63.0129 45.4258 63.92 45.4258C64.827 45.4258 65.6969 45.0325 66.3383 44.3323C66.9796 43.6321 67.34 42.6825 67.34 41.6922V29.2468C67.34 28.2566 66.9796 27.307 66.3383 26.6067C65.6969 25.9065 64.827 25.5132 63.92 25.5132Z" fill="#00F845"/>
<path d="M13.7598 25.5132C12.8528 25.5132 11.9829 25.9065 11.3415 26.6067C10.7001 27.307 10.3398 28.2566 10.3398 29.2468V41.6922C10.3398 42.6825 10.7001 43.6321 11.3415 44.3323C11.9829 45.0325 12.8528 45.4258 13.7598 45.4258C14.6668 45.4258 15.5367 45.0325 16.1781 44.3323C16.8195 43.6321 17.1798 42.6825 17.1798 41.6922V29.2468C17.1798 28.2566 16.8195 27.307 16.1781 26.6067C15.5367 25.9065 14.6668 25.5132 13.7598 25.5132Z" fill="#00F845"/>
</svg>
