<svg width="96" height="108" viewBox="0 0 96 108" fill="none" xmlns="http://www.w3.org/2000/svg">
<path d="M9.12027 99.3883H3.04009L1.92006 102.605H0L5.04015 88.2243H7.14021L12.1604 102.605H10.2403L9.12027 99.3883ZM8.60025 97.8528L6.08018 90.5484L3.5601 97.8528H8.60025ZM16.1771 93.329C16.5371 92.6788 17.0704 92.1393 17.7771 91.7105C18.4971 91.2677 19.3305 91.0464 20.2772 91.0464C21.2505 91.0464 22.1305 91.2885 22.9173 91.7727C23.7173 92.2569 24.3439 92.9417 24.7973 93.8271C25.2506 94.6986 25.4773 95.7154 25.4773 96.8775C25.4773 98.0257 25.2506 99.0494 24.7973 99.9486C24.3439 100.848 23.7173 101.546 22.9173 102.044C22.1305 102.542 21.2505 102.791 20.2772 102.791C19.3438 102.791 18.5171 102.577 17.7971 102.148C17.0904 101.705 16.5504 101.159 16.1771 100.509V108H14.357V91.2332H16.1771V93.329ZM23.6173 96.8775C23.6173 96.0197 23.4506 95.2727 23.1173 94.6363C22.7839 94 22.3306 93.5158 21.7572 93.1838C21.1972 92.8518 20.5772 92.6858 19.8972 92.6858C19.2305 92.6858 18.6104 92.8587 18.0371 93.2045C17.4771 93.5365 17.0237 94.0276 16.6771 94.6779C16.3437 95.3142 16.1771 96.0544 16.1771 96.8982C16.1771 97.7559 16.3437 98.5098 16.6771 99.1601C17.0237 99.7964 17.4771 100.288 18.0371 100.633C18.6104 100.965 19.2305 101.131 19.8972 101.131C20.5772 101.131 21.1972 100.965 21.7572 100.633C22.3306 100.288 22.7839 99.7964 23.1173 99.1601C23.4506 98.5098 23.6173 97.749 23.6173 96.8775ZM29.6931 93.329C30.0531 92.6788 30.5864 92.1393 31.2931 91.7105C32.0131 91.2677 32.8465 91.0464 33.7932 91.0464C34.7665 91.0464 35.6465 91.2885 36.4333 91.7727C37.2333 92.2569 37.86 92.9417 38.3133 93.8271C38.7666 94.6986 38.9933 95.7154 38.9933 96.8775C38.9933 98.0257 38.7666 99.0494 38.3133 99.9486C37.86 100.848 37.2333 101.546 36.4333 102.044C35.6465 102.542 34.7665 102.791 33.7932 102.791C32.8599 102.791 32.0331 102.577 31.3131 102.148C30.6064 101.705 30.0664 101.159 29.6931 100.509V108H27.873V91.2332H29.6931V93.329ZM37.1333 96.8775C37.1333 96.0197 36.9666 95.2727 36.6333 94.6363C36.3 94 35.8465 93.5158 35.2732 93.1838C34.7132 92.8518 34.0932 92.6858 33.4132 92.6858C32.7465 92.6858 32.1264 92.8587 31.5531 93.2045C30.9931 93.5365 30.5398 94.0276 30.1931 94.6779C29.8598 95.3142 29.6931 96.0544 29.6931 96.8982C29.6931 97.7559 29.8598 98.5098 30.1931 99.1601C30.5398 99.7964 30.9931 100.288 31.5531 100.633C32.1264 100.965 32.7465 101.131 33.4132 101.131C34.0932 101.131 34.7132 100.965 35.2732 100.633C35.8465 100.288 36.3 99.7964 36.6333 99.1601C36.9666 98.5098 37.1333 97.749 37.1333 96.8775ZM51.1413 102.75C50.2213 102.75 49.3946 102.584 48.6612 102.252C47.9412 101.906 47.3746 101.436 46.9612 100.841C46.5479 100.232 46.3346 99.5336 46.3212 98.745H48.2612C48.3279 99.4229 48.5946 99.9971 49.0612 100.467C49.5412 100.924 50.2347 101.152 51.1413 101.152C52.008 101.152 52.688 100.931 53.1814 100.488C53.6881 100.032 53.9414 99.4506 53.9414 98.745C53.9414 98.1917 53.7948 97.742 53.5014 97.3962C53.2081 97.0504 52.8413 96.7875 52.4013 96.6077C51.9613 96.4279 51.368 96.2342 50.6213 96.0267C49.7013 95.7777 48.9612 95.5286 48.4012 95.2796C47.8546 95.0306 47.3812 94.6433 46.9812 94.1176C46.5946 93.578 46.4012 92.8587 46.4012 91.9595C46.4012 91.1709 46.5946 90.4724 46.9812 89.8636C47.3679 89.2549 47.9079 88.7846 48.6012 88.4526C49.3079 88.1205 50.1147 87.9545 51.0213 87.9545C52.328 87.9545 53.3948 88.2935 54.2214 88.9713C55.0614 89.6492 55.5348 90.5484 55.6414 91.669H53.6414C53.5748 91.1156 53.2948 90.6314 52.8013 90.2164C52.308 89.7876 51.6547 89.5731 50.8413 89.5731C50.0813 89.5731 49.4612 89.7806 48.9812 90.1956C48.5012 90.5969 48.2612 91.164 48.2612 91.8972C48.2612 92.4229 48.4012 92.8518 48.6812 93.1838C48.9746 93.5158 49.3279 93.7718 49.7413 93.9516C50.168 94.1176 50.7613 94.3113 51.5213 94.5326C52.4413 94.7954 53.1814 95.0583 53.7414 95.3211C54.3014 95.5701 54.7814 95.9644 55.1814 96.5039C55.5814 97.0297 55.7814 97.749 55.7814 98.662C55.7814 99.3676 55.6014 100.032 55.2414 100.654C54.8814 101.277 54.3481 101.782 53.6414 102.169C52.9347 102.556 52.1013 102.75 51.1413 102.75ZM60.6799 92.7895V99.4921C60.6799 100.045 60.7933 100.44 61.0199 100.675C61.2466 100.896 61.6399 101.007 62.1999 101.007H63.54V102.605H61.8999C60.8866 102.605 60.1266 102.363 59.6198 101.878C59.1132 101.394 58.8598 100.599 58.8598 99.4921V92.7895H57.4398V91.2332H58.8598V88.3696H60.6799V91.2332H63.54V92.7895H60.6799ZM70.5254 102.791C69.4986 102.791 68.5653 102.549 67.7253 102.065C66.8986 101.581 66.2452 100.896 65.7652 100.011C65.2985 99.1116 65.0652 98.0741 65.0652 96.8982C65.0652 95.7362 65.3052 94.7124 65.7852 93.8271C66.2785 92.9278 66.9452 92.243 67.7853 91.7727C68.6253 91.2885 69.5653 91.0464 70.6054 91.0464C71.6454 91.0464 72.5854 91.2885 73.4254 91.7727C74.2655 92.243 74.9255 92.921 75.4055 93.8063C75.8988 94.6916 76.1455 95.7224 76.1455 96.8982C76.1455 98.0741 75.8921 99.1116 75.3855 100.011C74.8921 100.896 74.2188 101.581 73.3654 102.065C72.512 102.549 71.5654 102.791 70.5254 102.791ZM70.5254 101.131C71.1787 101.131 71.792 100.972 72.3654 100.654C72.9387 100.336 73.3987 99.8586 73.7454 99.2223C74.1055 98.586 74.2855 97.8113 74.2855 96.8982C74.2855 95.9852 74.1121 95.2104 73.7655 94.5741C73.4187 93.9378 72.9654 93.4673 72.4054 93.163C71.8454 92.8448 71.2387 92.6858 70.5854 92.6858C69.9186 92.6858 69.3053 92.8448 68.7453 93.163C68.1986 93.4673 67.7586 93.9378 67.4253 94.5741C67.0919 95.2104 66.9252 95.9852 66.9252 96.8982C66.9252 97.8251 67.0853 98.6067 67.4053 99.2431C67.7386 99.8794 68.1786 100.357 68.7253 100.675C69.2719 100.979 69.8719 101.131 70.5254 101.131ZM80.3586 93.08C80.6786 92.4298 81.132 91.9249 81.7187 91.5652C82.3187 91.2055 83.0453 91.0257 83.8987 91.0257V92.9763H83.4187C81.3787 92.9763 80.3586 94.1245 80.3586 96.4209V102.605H78.5386V91.2332H80.3586V93.08ZM96 96.4832C96 96.8429 95.98 97.2233 95.94 97.6245H87.1797C87.2464 98.745 87.6131 99.6235 88.2798 100.26C88.9598 100.882 89.7798 101.194 90.7398 101.194C91.5266 101.194 92.1799 101.007 92.6999 100.633C93.2332 100.246 93.6066 99.7341 93.8199 99.0978H95.78C95.4867 100.191 94.9 101.083 94.0199 101.775C93.1399 102.453 92.0466 102.791 90.7398 102.791C89.6998 102.791 88.7665 102.549 87.9398 102.065C87.1264 101.581 86.4864 100.896 86.0197 100.011C85.553 99.1116 85.3197 98.0741 85.3197 96.8982C85.3197 95.7224 85.5464 94.6916 85.9997 93.8063C86.453 92.921 87.0864 92.243 87.8998 91.7727C88.7265 91.2885 89.6731 91.0464 90.7398 91.0464C91.7799 91.0464 92.6999 91.2816 93.4999 91.752C94.3 92.2223 94.9133 92.8725 95.34 93.7026C95.78 94.5188 96 95.4456 96 96.4832ZM94.1199 96.0889C94.1199 95.3696 93.9666 94.7539 93.6599 94.2421C93.3532 93.7164 92.9332 93.3221 92.3999 93.0593C91.8799 92.7826 91.2999 92.6443 90.6598 92.6443C89.7398 92.6443 88.9531 92.9486 88.2998 93.5573C87.6598 94.166 87.293 95.0099 87.1997 96.0889H94.1199Z" fill="white"/>
<path d="M60.2787 14C55.1489 14 52.9809 16.5397 49.4084 16.5397C45.7455 16.5397 42.9516 14.0185 38.5063 14.0185C34.1552 14.0185 29.5152 16.7746 26.5686 21.4699C22.4311 28.0911 23.1335 40.5612 29.8345 51.1846C32.2314 54.9876 35.4325 59.2525 39.631 59.2987H39.7073C43.3563 59.2987 44.4402 56.8198 49.4618 56.7907H49.5382C54.4848 56.7907 55.4772 59.2842 59.1108 59.2842H59.1871C63.3856 59.238 66.7584 54.5124 69.1554 50.724C70.8806 47.9995 71.5218 46.632 72.845 43.5497C63.1515 39.7323 61.5943 25.4748 71.1809 20.0087C68.2546 16.2071 64.1427 14.0053 60.266 14.0053L60.2787 14Z" fill="#00CBF8"/>
<path d="M59.4907 0C56.4373 0.215162 52.8749 2.23213 50.7883 4.86555C48.8953 7.25213 47.3379 10.7924 47.9486 14.2257H48.1929C51.4448 14.2257 54.7731 12.1942 56.7172 9.59118C58.5899 7.11352 60.0098 3.6023 59.4907 0Z" fill="#00CBF8"/>
</svg>
