<svg width="77" height="105" viewBox="0 0 77 105" fill="none" xmlns="http://www.w3.org/2000/svg">
<path d="M67.3355 0H9.77846C7.33232 0 5.34717 1.8679 5.34717 4.17073V42.3986C5.34717 44.7053 7.33232 46.5693 9.77846 46.5693H31.856C31.856 46.5693 27.977 54.9146 17.3494 54.9146V57H25.1571H44.1282H58.6348V54.9146C47.7082 54.9146 45.2371 46.5693 45.2371 46.5693H67.3313C69.7733 46.5693 71.7543 44.7053 71.7543 42.3986V4.17073C71.7626 1.8679 69.7775 0 67.3355 0ZM38.5549 45.7111C37.1803 45.7111 36.0672 44.6703 36.0672 43.3849C36.0672 42.1034 37.1803 41.0627 38.5549 41.0627C39.9254 41.0627 41.0426 42.1034 41.0426 43.3849C41.0384 44.6703 39.9254 45.7111 38.5549 45.7111ZM67.0157 39.8045H10.0941V4.4348H67.0198L67.0157 39.8045Z" fill="white"/>
<path d="M33.6881 32.9191C35.3202 32.857 35.9389 31.9289 37.9116 31.9289C39.8885 31.9289 40.4409 32.9191 42.1644 32.8881C43.9212 32.857 45.0341 31.393 46.1056 29.929C47.3515 28.228 47.8624 26.5815 47.8955 26.4999C47.854 26.4805 44.4734 25.2689 44.4361 21.6263C44.4028 18.574 47.1023 17.11 47.2187 17.0362C45.7069 14.9664 43.3439 14.6829 42.5049 14.6518C40.5032 14.4615 38.5928 15.7547 37.5711 15.7547C36.5578 15.7547 34.9838 14.679 33.3225 14.7062C31.1339 14.7372 29.1197 15.8984 27.9901 17.7274C25.7184 21.4166 27.4086 26.8766 29.6222 29.8707C30.702 31.3347 31.9935 32.9774 33.6881 32.9191Z" fill="white"/>
<path d="M42.533 8.823C41.2372 8.87348 39.6716 9.63074 38.7371 10.6482C37.9064 11.553 37.1756 12.9937 37.3708 14.3762C38.8202 14.4811 40.2945 13.6889 41.1957 12.6714C42.0928 11.6501 42.6991 10.2365 42.533 8.823Z" fill="#FFFEFD"/>
<path d="M16.7689 89.16V103H14.8225V92.68L9.90308 103H8.53419L3.59336 92.66V103H1.64697V89.16H3.74308L9.21864 100.6L14.6942 89.16H16.7689ZM19.3426 97.48C19.3426 96.36 19.585 95.38 20.0699 94.54C20.5546 93.6867 21.2177 93.0267 22.059 92.56C22.9146 92.0933 23.8628 91.86 24.9038 91.86C25.9304 91.86 26.8216 92.0667 27.5774 92.48C28.333 92.8933 28.8963 93.4133 29.2671 94.04V92.04H31.2349V103H29.2671V100.96C28.8821 101.6 28.3046 102.133 27.5346 102.56C26.7788 102.973 25.8947 103.18 24.8824 103.18C23.8414 103.18 22.9003 102.94 22.059 102.46C21.2177 101.98 20.5546 101.307 20.0699 100.44C19.585 99.5733 19.3426 98.5867 19.3426 97.48ZM29.2671 97.5C29.2671 96.6733 29.0888 95.9533 28.7324 95.34C28.3758 94.7267 27.891 94.26 27.2779 93.94C26.679 93.6067 26.016 93.44 25.2888 93.44C24.5615 93.44 23.8985 93.6 23.2996 93.92C22.7007 94.24 22.223 94.7067 21.8665 95.32C21.51 95.9333 21.3318 96.6533 21.3318 97.48C21.3318 98.32 21.51 99.0533 21.8665 99.68C22.223 100.293 22.7007 100.767 23.2996 101.1C23.8985 101.42 24.5615 101.58 25.2888 101.58C26.016 101.58 26.679 101.42 27.2779 101.1C27.891 100.767 28.3758 100.293 28.7324 99.68C29.0888 99.0533 29.2671 98.3267 29.2671 97.5ZM33.7968 97.5C33.7968 96.3667 34.0393 95.38 34.524 94.54C35.0088 93.6867 35.679 93.0267 36.5346 92.56C37.4044 92.0933 38.3954 91.86 39.5077 91.86C40.9479 91.86 42.1313 92.1867 43.0582 92.84C43.9993 93.4933 44.6196 94.4 44.919 95.56H42.8229C42.6233 94.8933 42.2312 94.3667 41.6465 93.98C41.0762 93.5933 40.3632 93.4 39.5077 93.4C38.3954 93.4 37.4971 93.76 36.8127 94.48C36.1282 95.1867 35.786 96.1933 35.786 97.5C35.786 98.82 36.1282 99.84 36.8127 100.56C37.4971 101.28 38.3954 101.64 39.5077 101.64C40.3632 101.64 41.0762 101.453 41.6465 101.08C42.2169 100.707 42.609 100.173 42.8229 99.48H44.919C44.6054 100.6 43.9779 101.5 43.0368 102.18C42.0957 102.847 40.9193 103.18 39.5077 103.18C38.3954 103.18 37.4044 102.947 36.5346 102.48C35.679 102.013 35.0088 101.353 34.524 100.5C34.0393 99.6467 33.7968 98.6467 33.7968 97.5ZM58.3304 103.18C57.2324 103.18 56.2343 102.947 55.336 102.48C54.4519 102.013 53.7532 101.353 53.2399 100.5C52.7407 99.6333 52.4912 98.6333 52.4912 97.5C52.4912 96.38 52.7479 95.3933 53.2612 94.54C53.7888 93.6733 54.5018 93.0133 55.4001 92.56C56.2985 92.0933 57.3037 91.86 58.416 91.86C59.5282 91.86 60.5335 92.0933 61.4318 92.56C62.3301 93.0133 63.036 93.6667 63.5493 94.52C64.0769 95.3733 64.3407 96.3667 64.3407 97.5C64.3407 98.6333 64.0697 99.6333 63.5279 100.5C63.0002 101.353 62.2802 102.013 61.3676 102.48C60.455 102.947 59.4426 103.18 58.3304 103.18ZM58.3304 101.58C59.0291 101.58 59.685 101.427 60.2982 101.12C60.9113 100.813 61.4032 100.353 61.774 99.74C62.159 99.1267 62.3515 98.38 62.3515 97.5C62.3515 96.62 62.1661 95.8733 61.7954 95.26C61.4246 94.6467 60.9399 94.1933 60.341 93.9C59.7421 93.5933 59.0932 93.44 58.3946 93.44C57.6816 93.44 57.0257 93.5933 56.4268 93.9C55.8421 94.1933 55.3716 94.6467 55.0151 95.26C54.6586 95.8733 54.4804 96.62 54.4804 97.5C54.4804 98.3933 54.6515 99.1467 54.9937 99.76C55.3502 100.373 55.8207 100.833 56.4054 101.14C56.99 101.433 57.6316 101.58 58.3304 101.58ZM71.0492 103.18C70.1509 103.18 69.3453 103.04 68.6323 102.76C67.9194 102.467 67.3561 102.067 66.9425 101.56C66.5291 101.04 66.3009 100.447 66.2581 99.78H68.2687C68.3258 100.327 68.5966 100.773 69.0814 101.12C69.5805 101.467 70.2294 101.64 71.0278 101.64C71.7694 101.64 72.3539 101.487 72.7817 101.18C73.2095 100.873 73.4234 100.487 73.4234 100.02C73.4234 99.54 73.1953 99.1867 72.7389 98.96C72.2827 98.72 71.5769 98.4867 70.6214 98.26C69.7517 98.0467 69.0387 97.8333 68.4825 97.62C67.9408 97.3933 67.4702 97.0667 67.0709 96.64C66.6859 96.2 66.4934 95.6267 66.4934 94.92C66.4934 94.36 66.6717 93.8467 67.0281 93.38C67.3847 92.9133 67.8908 92.5467 68.5467 92.28C69.2027 92 69.9513 91.86 70.7925 91.86C72.0902 91.86 73.1383 92.1667 73.9367 92.78C74.7353 93.3933 75.163 94.2333 75.22 95.3H73.2737C73.2309 94.7267 72.9814 94.2667 72.525 93.92C72.083 93.5733 71.4841 93.4 70.7284 93.4C70.0297 93.4 69.4736 93.54 69.06 93.82C68.6466 94.1 68.4398 94.4667 68.4398 94.92C68.4398 95.28 68.561 95.58 68.8034 95.82C69.06 96.0467 69.3738 96.2333 69.7445 96.38C70.1295 96.5133 70.6572 96.6667 71.3273 96.84C72.1686 97.0533 72.853 97.2667 73.3806 97.48C73.9083 97.68 74.3574 97.9867 74.7281 98.4C75.1131 98.8133 75.3128 99.3533 75.327 100.02C75.327 100.62 75.1488 101.16 74.7923 101.64C74.4358 102.12 73.9297 102.5 73.2737 102.78C72.632 103.047 71.8905 103.18 71.0492 103.18Z" fill="white"/>
</svg>
