<svg width="89" height="105" viewBox="0 0 89 105" fill="none" xmlns="http://www.w3.org/2000/svg">
<path d="M16.5586 53.6638L39.9464 57.1789V32.834H16.5586V53.6638Z" fill="#0081F8"/>
<path d="M16.5586 29.6926H39.9464V5.04858L16.5586 8.56362V29.6926Z" fill="#0081F8"/>
<path d="M42.5166 57.5533L73.6201 62.2272V32.8343L42.5166 32.8339V57.5533Z" fill="#0081F8"/>
<path d="M42.5166 4.67447V29.6925H73.6197V0L42.5166 4.67447Z" fill="#0081F8"/>
<path d="M18.6206 87.5851L14.5761 102.803H12.5339L9.29029 90.5546L5.92657 102.803L3.90433 102.825L0 87.5851H1.94215L4.98552 100.489L8.34925 87.5851H10.3915L13.5951 100.445L16.6585 87.5851H18.6206ZM21.5556 88.8952C21.2086 88.8952 20.9149 88.7642 20.6746 88.5022C20.4343 88.2401 20.3142 87.9199 20.3142 87.5415C20.3142 87.163 20.4343 86.8428 20.6746 86.5808C20.9149 86.3187 21.2086 86.1877 21.5556 86.1877C21.8894 86.1877 22.1697 86.3187 22.3965 86.5808C22.6368 86.8428 22.7569 87.163 22.7569 87.5415C22.7569 87.9199 22.6368 88.2401 22.3965 88.5022C22.1697 88.7642 21.8894 88.8952 21.5556 88.8952ZM22.4366 90.8384V102.803H20.6145V90.8384H22.4366ZM30.8878 90.6201C32.2226 90.6201 33.3038 91.0641 34.1314 91.9519C34.959 92.8253 35.3728 94.0917 35.3728 95.7511V102.803H33.5708V96.0349C33.5708 94.8413 33.2972 93.9315 32.7499 93.3057C32.2026 92.6651 31.4551 92.3449 30.5074 92.3449C29.5463 92.3449 28.7788 92.6725 28.2048 93.3275C27.6442 93.9825 27.3639 94.9359 27.3639 96.1877V102.803H25.5419V90.8384H27.3639V92.5415C27.7243 91.9301 28.2116 91.4571 28.8255 91.1222C29.4529 90.7874 30.1403 90.6201 30.8878 90.6201ZM37.6683 96.7773C37.6683 95.5546 37.8952 94.4847 38.3491 93.5677C38.8029 92.6361 39.4236 91.9156 40.2111 91.4061C41.012 90.8966 41.9063 90.6419 42.8941 90.6419C43.7484 90.6419 44.5425 90.8602 45.2768 91.2969C46.0109 91.7191 46.5715 92.2794 46.9586 92.9781V86.6463H48.8007V102.803H46.9586V100.555C46.5982 101.268 46.0642 101.857 45.3569 102.323C44.6494 102.774 43.8217 103 42.8741 103C41.8996 103 41.012 102.738 40.2111 102.214C39.4236 101.69 38.8029 100.955 38.3491 100.009C37.8952 99.0625 37.6683 97.9855 37.6683 96.7773ZM46.9586 96.7991C46.9586 95.8966 46.7917 95.1106 46.4581 94.441C46.1243 93.7715 45.6705 93.262 45.0966 92.9126C44.5359 92.5488 43.9153 92.3668 43.2345 92.3668C42.5537 92.3668 41.9331 92.5415 41.3724 92.8908C40.8118 93.2401 40.3646 93.7496 40.031 94.4192C39.6972 95.0887 39.5304 95.8748 39.5304 96.7773C39.5304 97.6943 39.6972 98.4948 40.031 99.179C40.3646 99.8485 40.8118 100.365 41.3724 100.729C41.9331 101.079 42.5537 101.253 43.2345 101.253C43.9153 101.253 44.5359 101.079 45.0966 100.729C45.6705 100.365 46.1243 99.8485 46.4581 99.179C46.7917 98.4948 46.9586 97.7016 46.9586 96.7991ZM56.665 103C55.6371 103 54.7028 102.745 53.8619 102.236C53.0343 101.726 52.3802 101.006 51.8997 100.074C51.4325 99.128 51.1989 98.0363 51.1989 96.7991C51.1989 95.5764 51.4392 94.4992 51.9197 93.5677C52.4136 92.6215 53.081 91.901 53.9219 91.4061C54.7629 90.8966 55.7039 90.6419 56.7451 90.6419C57.7862 90.6419 58.7273 90.8966 59.5682 91.4061C60.4091 91.901 61.0699 92.6143 61.5504 93.5458C62.0442 94.4774 62.2912 95.5619 62.2912 96.7991C62.2912 98.0363 62.0376 99.128 61.5304 100.074C61.0365 101.006 60.3624 101.726 59.5081 102.236C58.6539 102.745 57.7061 103 56.665 103ZM56.665 101.253C57.319 101.253 57.9331 101.086 58.507 100.751C59.081 100.416 59.5415 99.914 59.8886 99.2445C60.249 98.575 60.4292 97.7598 60.4292 96.7991C60.4292 95.8384 60.2557 95.0232 59.9086 94.3537C59.5615 93.6841 59.1077 93.1892 58.5471 92.869C57.9864 92.5341 57.3791 92.3668 56.725 92.3668C56.0576 92.3668 55.4436 92.5341 54.883 92.869C54.3357 93.1892 53.8952 93.6841 53.5615 94.3537C53.2279 95.0232 53.061 95.8384 53.061 96.7991C53.061 97.7743 53.2212 98.5968 53.5415 99.2663C53.8752 99.9359 54.3157 100.438 54.863 100.773C55.4103 101.093 56.011 101.253 56.665 101.253ZM79.3031 90.8384L75.8793 102.803H73.9972L71.3543 93.3057L68.7113 102.803H66.8292L63.3854 90.8384H65.2475L67.7703 100.882L70.4933 90.8384H72.3554L75.0183 100.904L77.5011 90.8384H79.3031ZM84.9956 103C84.1546 103 83.4005 102.847 82.7331 102.541C82.0656 102.221 81.5384 101.785 81.1513 101.231C80.7642 100.664 80.5506 100.016 80.5106 99.2882H82.3927C82.446 99.885 82.6997 100.373 83.1535 100.751C83.6207 101.13 84.228 101.319 84.9755 101.319C85.6696 101.319 86.2169 101.151 86.6174 100.817C87.0178 100.482 87.218 100.06 87.218 99.5502C87.218 99.0262 87.0045 98.6405 86.5773 98.393C86.1501 98.131 85.4894 97.8763 84.5951 97.6288C83.7809 97.3959 83.1135 97.163 82.5929 96.9301C82.0856 96.6826 81.6452 96.3261 81.2714 95.8602C80.911 95.3799 80.7308 94.754 80.7308 93.9825C80.7308 93.3711 80.8977 92.8108 81.2314 92.3013C81.5651 91.7918 82.039 91.3916 82.653 91.1004C83.267 90.7947 83.9677 90.6419 84.7553 90.6419C85.9699 90.6419 86.951 90.9767 87.6986 91.6463C88.4461 92.3158 88.8465 93.2328 88.8999 94.3974H87.0779C87.0378 93.7715 86.8043 93.2693 86.3771 92.8908C85.9633 92.5123 85.4027 92.3231 84.6952 92.3231C84.0412 92.3231 83.5206 92.476 83.1335 92.7816C82.7464 93.0873 82.5529 93.4876 82.5529 93.9825C82.5529 94.3755 82.6663 94.703 82.8932 94.965C83.1335 95.2125 83.4271 95.4162 83.7742 95.5764C84.1346 95.7219 84.6285 95.8894 85.2559 96.0786C86.0434 96.3114 86.6841 96.5444 87.178 96.7773C87.6718 96.9956 88.0923 97.3304 88.4394 97.7816C88.7998 98.2328 88.9867 98.8223 89 99.5502C89 100.205 88.8331 100.795 88.4994 101.319C88.1658 101.843 87.6919 102.258 87.0779 102.563C86.4772 102.854 85.7831 103 84.9956 103Z" fill="white"/>
</svg>
