<?xml version="1.0" encoding="utf-8"?>
<svg version="1.2" viewBox="0 0 1508 199" width="195" height="101" xmlns="http://www.w3.org/2000/svg">
  <defs/>
  <title>full-logo-svg</title>
  <style>
		.s0 { fill: #ffffff } 
	</style>
  <path id="path-1" fill-rule="evenodd" class="s0" d="M 358.064 38.461 L 319.664 38.461 L 319.664 11.665 L 426.564 11.665 L 426.564 38.461 L 387.764 38.461 L 387.764 149.269 L 358.064 149.269 L 358.064 38.461 Z M 426.664 52.384 L 454.464 52.384 L 454.464 67.927 C 457.964 58.392 468.264 51.24 479.664 51.24 C 482.664 51.24 485.564 51.43 488.964 52.384 L 488.964 79.371 C 484.764 78.036 481.064 77.273 476.364 77.273 C 463.164 77.273 454.464 86.904 454.464 103.02 L 454.464 149.269 L 426.664 149.269 L 426.664 52.384 Z M 494.664 100.826 C 494.664 73.554 515.364 50.286 542.464 50.286 C 556.464 50.286 567.064 57.056 571.664 63.255 L 571.664 52.384 L 599.564 52.384 L 599.564 149.269 L 571.664 149.269 L 571.664 138.493 C 567.064 144.692 556.464 151.462 542.464 151.462 C 515.364 151.462 494.664 128.195 494.664 100.826 Z M 573.964 100.826 C 573.964 85.569 563.764 74.507 548.364 74.507 C 532.864 74.507 522.764 85.569 522.764 100.826 C 522.764 116.179 532.864 127.241 548.364 127.241 C 563.764 127.241 573.964 116.179 573.964 100.826 Z M 618.064 100.826 C 618.064 73.554 638.764 50.286 665.864 50.286 C 679.864 50.286 690.364 57.056 695.064 63.255 L 695.064 3.941 L 722.964 3.941 L 722.964 149.269 L 695.064 149.269 L 695.064 138.493 C 690.364 144.692 679.864 151.462 665.864 151.462 C 638.764 151.462 618.064 128.195 618.064 100.826 Z M 697.264 100.826 C 697.264 85.569 687.164 74.507 671.664 74.507 C 656.264 74.507 646.064 85.569 646.064 100.826 C 646.064 116.179 656.264 127.241 671.664 127.241 C 687.164 127.241 697.264 116.179 697.264 100.826 Z M 744.064 19.676 C 744.064 10.426 752.164 2.797 761.764 2.797 C 771.764 2.797 779.664 10.426 779.664 19.676 C 779.664 29.021 771.764 36.554 761.764 36.554 C 752.164 36.554 744.064 29.021 744.064 19.676 Z M 747.964 52.384 L 775.764 52.384 L 775.764 149.269 L 747.964 149.269 L 747.964 52.384 Z M 800.464 52.384 L 828.364 52.384 L 828.364 63.446 C 833.764 55.721 844.164 50.286 857.364 50.286 C 881.964 50.286 896.564 67.355 896.564 92.53 L 896.564 149.269 L 868.764 149.269 L 868.764 97.012 C 868.764 82.994 862.464 74.507 850.864 74.507 C 837.864 74.507 828.364 83.471 828.364 102.066 L 828.364 149.269 L 800.464 149.269 L 800.464 52.384 Z M 916.864 176.256 L 932.064 156.516 C 941.064 164.813 952.364 168.532 963.764 168.532 C 980.264 168.532 990.964 157.47 990.964 141.926 L 990.964 135.347 C 985.564 142.498 974.564 148.125 961.564 148.125 C 934.964 148.125 913.564 126.478 913.564 99.301 C 913.564 72.028 934.964 50.286 961.564 50.286 C 974.564 50.286 985.564 55.721 990.964 63.255 L 990.964 52.384 L 1018.864 52.384 L 1018.864 141.736 C 1018.864 176.637 995.264 191.704 964.164 191.704 C 946.464 191.704 928.464 186.936 916.864 176.256 Z M 993.264 99.301 C 993.264 84.425 981.464 74.507 967.464 74.507 C 953.464 74.507 941.664 84.425 941.664 99.301 C 941.664 114.081 953.464 124.094 967.464 124.094 C 981.464 124.094 993.264 114.081 993.264 99.301 Z M 1018.164 11.761 L 1050.064 11.761 L 1090.964 107.216 L 1131.164 11.761 L 1163.664 11.761 L 1103.964 149.269 L 1077.664 149.269 L 1018.164 11.761 Z M 1171.564 19.771 C 1171.564 10.426 1179.664 2.892 1189.264 2.892 C 1199.164 2.892 1207.164 10.426 1207.164 19.771 C 1207.164 29.021 1199.164 36.65 1189.264 36.65 C 1179.664 36.65 1171.564 29.021 1171.564 19.771 Z M 1175.464 52.479 L 1203.264 52.479 L 1203.264 149.364 L 1175.464 149.364 L 1175.464 52.479 Z M 1221.464 100.922 C 1221.464 72.219 1243.964 50.381 1274.864 50.381 C 1301.464 50.381 1324.864 66.402 1324.864 98.061 C 1324.864 100.35 1325.064 103.02 1324.464 107.12 L 1248.464 107.12 C 1250.064 120.089 1262.064 127.241 1275.464 127.241 C 1288.264 127.241 1297.064 121.901 1301.764 115.035 L 1322.464 129.816 C 1312.864 142.975 1296.664 151.462 1275.264 151.462 C 1245.064 151.462 1221.464 131.532 1221.464 100.922 Z M 1297.064 89.097 C 1294.564 77.463 1284.464 72.219 1274.064 72.219 C 1263.764 72.219 1252.164 77.273 1249.464 89.097 L 1297.064 89.097 Z M 1410.164 94.342 L 1391.264 149.364 L 1363.564 149.364 L 1329.864 52.479 L 1359.564 52.479 L 1378.864 114.463 L 1399.364 52.479 L 1420.664 52.479 L 1441.464 114.463 L 1460.564 52.479 L 1490.364 52.479 L 1456.864 149.364 L 1429.264 149.364 L 1410.164 94.342 Z" style=""/>
  <path id="path-2" fill-rule="evenodd" class="s0" d="M 132.914 155.644 L 79.414 155.644 L 79.414 64.744 L 20.614 64.744 L 20.614 11.244 L 132.914 11.244 L 132.914 155.644 Z M 213.114 43.344 C 213.114 61.144 198.714 75.444 181.014 75.444 C 163.314 75.444 148.914 61.144 148.914 43.344 C 148.914 25.644 163.314 11.344 181.014 11.344 C 198.714 11.344 213.114 25.644 213.114 43.344 Z M 181.014 155.644 L 242.514 11.344 L 306.614 11.344 L 245.214 155.644 L 181.014 155.644 Z" style="fill: rgb(46, 0, 170);"/>
</svg>