<?xml version="1.0" encoding="utf-8"?>
<svg version="1.1" width="190" height="90" fill="none" viewBox="0 0 337.6 72" xmlns="http://www.w3.org/2000/svg">
  <defs/>
  <path d="M 122.751 19.521 L 122.751 53.095 L 116.458 53.095 L 116.458 26.749 L 116.374 26.749 L 105.13 53.095 L 100.934 53.095 L 89.438 26.749 L 89.354 26.749 L 89.354 53.095 L 83.564 53.095 L 83.564 19.521 L 92.627 19.521 L 103.032 44.391 L 103.2 44.391 L 114.193 19.521 L 122.751 19.521 Z M 127.955 22.087 C 127.955 21.153 128.29 20.377 129.045 19.755 C 129.801 19.133 130.64 18.823 131.647 18.823 C 132.737 18.823 133.66 19.133 134.332 19.755 C 135.003 20.377 135.422 21.153 135.422 22.087 C 135.422 23.019 135.087 23.797 134.332 24.417 C 133.576 25.039 132.737 25.351 131.647 25.351 C 130.555 25.351 129.717 25.039 129.045 24.417 C 128.374 23.719 127.955 22.941 127.955 22.087 Z M 134.752 29.003 L 134.752 53.095 L 128.625 53.095 L 128.625 29.003 L 134.752 29.003 Z M 153.296 48.975 C 154.219 48.975 155.226 48.821 156.317 48.354 C 157.407 47.965 158.415 47.421 159.339 46.799 L 159.339 52.085 C 158.331 52.629 157.24 53.017 155.981 53.25 C 154.723 53.483 153.381 53.639 151.87 53.639 C 148.009 53.639 144.904 52.551 142.556 50.297 C 140.121 48.043 138.947 45.167 138.947 41.749 C 138.947 37.863 140.205 34.677 142.639 32.189 C 145.072 29.703 148.513 28.459 153.044 28.459 C 154.219 28.459 155.394 28.615 156.485 28.847 C 157.66 29.081 158.582 29.469 159.254 29.781 L 159.254 35.221 C 158.331 34.599 157.324 34.055 156.401 33.743 C 155.394 33.433 154.387 33.199 153.381 33.199 C 150.947 33.199 149.017 33.899 147.506 35.375 C 145.996 36.853 145.325 38.795 145.325 41.282 C 145.325 43.691 146.079 45.634 147.506 46.955 C 148.932 48.277 150.862 48.975 153.296 48.975 Z M 176.708 28.615 C 177.212 28.615 177.631 28.615 178.052 28.693 C 178.471 28.769 178.806 28.847 179.058 28.925 L 179.058 34.677 C 178.722 34.443 178.302 34.209 177.631 34.055 C 176.96 33.899 176.288 33.743 175.366 33.743 C 173.855 33.743 172.596 34.365 171.589 35.531 C 170.583 36.697 169.995 38.485 169.995 40.971 L 169.995 53.095 L 163.869 53.095 L 163.869 29.003 L 169.995 29.003 L 169.995 32.811 L 170.078 32.811 C 170.667 31.489 171.505 30.479 172.596 29.703 C 173.771 29.003 175.114 28.615 176.708 28.615 Z M 179.393 41.437 C 179.393 37.474 180.652 34.287 183.001 31.957 C 185.435 29.625 188.791 28.459 193.071 28.459 C 197.1 28.459 200.288 29.547 202.553 31.801 C 204.819 34.055 205.993 37.085 205.993 40.893 C 205.993 44.779 204.736 47.887 202.385 50.219 C 199.953 52.551 196.679 53.717 192.484 53.717 C 188.456 53.717 185.267 52.629 182.918 50.453 C 180.568 48.199 179.393 45.167 179.393 41.437 Z M 185.77 41.205 C 185.77 43.691 186.358 45.634 187.617 46.955 C 188.875 48.277 190.638 48.975 192.903 48.975 C 195.085 48.975 196.848 48.354 198.022 46.955 C 199.197 45.634 199.784 43.691 199.784 41.049 C 199.784 38.485 199.197 36.541 198.022 35.143 C 196.848 33.821 195.085 33.121 192.987 33.121 C 190.722 33.121 189.044 33.821 187.785 35.221 C 186.358 36.697 185.77 38.639 185.77 41.205 Z M 215.14 35.375 C 215.14 36.153 215.392 36.853 215.98 37.319 C 216.567 37.785 217.742 38.329 219.672 39.029 C 222.106 39.961 223.867 40.971 224.79 42.059 C 225.797 43.225 226.3 44.546 226.3 46.178 C 226.3 48.431 225.378 50.219 223.448 51.618 C 221.601 53.017 219.001 53.639 215.812 53.639 C 214.721 53.639 213.546 53.483 212.203 53.25 C 210.861 53.017 209.77 52.706 208.847 52.317 L 208.847 46.722 C 209.938 47.421 211.197 48.043 212.455 48.431 C 213.714 48.821 214.889 49.053 215.98 49.053 C 217.322 49.053 218.413 48.898 219.001 48.509 C 219.672 48.121 220.007 47.577 220.007 46.722 C 220.007 45.945 219.672 45.323 219.001 44.701 C 218.329 44.157 216.986 43.535 215.14 42.837 C 212.875 41.981 211.281 40.971 210.357 39.883 C 209.435 38.795 208.93 37.397 208.93 35.687 C 208.93 33.511 209.854 31.723 211.7 30.325 C 213.546 28.925 215.98 28.225 218.916 28.225 C 219.839 28.225 220.847 28.303 221.938 28.537 C 223.028 28.769 224.036 29.003 224.79 29.237 L 224.79 34.753 C 223.952 34.287 223.028 33.821 221.938 33.433 C 220.847 33.045 219.755 32.889 218.749 32.889 C 217.574 32.889 216.651 33.121 216.063 33.511 C 215.475 34.055 215.14 34.599 215.14 35.375 Z M 228.902 41.437 C 228.902 37.474 230.161 34.287 232.51 31.957 C 234.944 29.625 238.301 28.459 242.58 28.459 C 246.608 28.459 249.796 29.547 252.063 31.801 C 254.328 34.055 255.503 37.085 255.503 40.893 C 255.503 44.779 254.244 47.887 251.895 50.219 C 249.461 52.551 246.189 53.717 241.992 53.717 C 237.965 53.717 234.776 52.629 232.427 50.453 C 230.161 48.199 228.902 45.167 228.902 41.437 Z M 235.28 41.205 C 235.28 43.691 235.867 45.634 237.126 46.955 C 238.385 48.277 240.146 48.975 242.413 48.975 C 244.594 48.975 246.356 48.354 247.531 46.955 C 248.706 45.634 249.293 43.691 249.293 41.049 C 249.293 38.485 248.706 36.541 247.531 35.143 C 246.356 33.821 244.594 33.121 242.497 33.121 C 240.231 33.121 238.552 33.821 237.293 35.221 C 235.951 36.697 235.28 38.639 235.28 41.205 Z M 275.894 33.665 L 266.747 33.665 L 266.747 53.095 L 260.538 53.095 L 260.538 33.665 L 256.174 33.665 L 256.174 29.003 L 260.538 29.003 L 260.538 25.661 C 260.538 23.175 261.461 21.077 263.223 19.445 C 264.985 17.813 267.25 17.035 270.019 17.035 C 270.776 17.035 271.447 17.113 272.035 17.113 C 272.621 17.113 273.124 17.269 273.544 17.423 L 273.544 22.319 C 273.376 22.241 272.957 22.087 272.454 21.931 C 271.949 21.775 271.362 21.697 270.691 21.697 C 269.432 21.697 268.425 22.087 267.755 22.785 C 267.083 23.485 266.747 24.651 266.747 26.049 L 266.747 28.925 L 275.894 28.925 L 275.894 23.485 L 282.02 21.775 L 282.02 28.925 L 288.229 28.925 L 288.229 33.589 L 282.02 33.589 L 282.02 44.857 C 282.02 46.333 282.355 47.343 282.858 47.965 C 283.446 48.587 284.369 48.898 285.627 48.898 C 285.963 48.898 286.384 48.821 286.886 48.665 C 287.39 48.509 287.81 48.354 288.145 48.121 L 288.145 52.783 C 287.726 53.017 287.138 53.173 286.216 53.327 C 285.292 53.483 284.452 53.561 283.53 53.561 C 280.928 53.561 278.999 52.939 277.74 51.695 C 276.481 50.453 275.81 48.509 275.81 45.945 L 275.894 33.665 Z" style="fill: rgb(255, 255, 255);"/>
  <rect fill="#F25022" width="28.698" height="26.578" style="" x="4.937" y="8.331"/>
  <rect x="36.656" fill="#7FBA00" width="28.698" height="26.578" style="" y="8.331"/>
  <rect y="37.707" fill="#00A4EF" width="28.698" height="26.578" style="" x="4.937"/>
  <rect x="36.656" y="37.707" fill="#FFB900" width="28.698" height="26.578" style=""/>
</svg>